<svg xmlns="http://www.w3.org/2000/svg" viewBox="0 0 283.46 42.52">   <path d="M223.61 28.15c0 6.76-5.77 10.31-12.18 10.31-7.25 0-12.24-4.43-12.24-10.45h6.86c.05 2.47 2.42 4.48 5.57 4.48s5.08-1.58 5.08-3.99c0-1.87-1.38-3.2-4.29-4.09l-4.14-1.18c-7.45-1.97-8.78-6.46-8.78-9.52 0-6.06 5.23-10.11 11.73-10.11s11.34 3.9 11.34 10.36h-6.85c0-2.42-1.68-4.29-4.63-4.29-2.67 0-4.69 1.63-4.69 3.9 0 .84.25 2.62 3.8 3.6l3.8 1.09c5.13 1.43 9.62 4.14 9.62 9.91Zm-93.65 9.87h6.85V4.04h-6.85v33.98Zm55.34-19.78-3.8-1.09c-3.55-.98-3.8-2.76-3.8-3.6 0-2.27 2.02-3.9 4.68-3.9 2.96 0 4.64 1.87 4.64 4.29h6.85c0-6.46-4.93-10.36-11.34-10.36s-11.74 4.05-11.74 10.11c0 3.06 1.33 7.54 8.78 9.52l4.14 1.18c2.91.89 4.29 2.22 4.29 4.09 0 2.42-2.02 3.99-5.08 3.99s-5.52-2.02-5.57-4.48h-6.86c0 6.02 4.98 10.45 12.23 10.45 6.41 0 12.18-3.55 12.18-10.31 0-5.77-4.48-8.48-9.61-9.91Zm51.37 6.11v-.38h12.39v-6.09h-12.39v-7.79h14.45V4.02h-21.3V38h21.75v-6.07h-14.9v-7.59Zm-84.71 0v-.38h12.38v-6.09h-12.38v-7.79h14.45V4.02h-21.3V38h21.75v-6.07h-14.89v-7.59Zm-34.85 1.36 7.21 12.31h-7.43l-7.14-12.18h-3.97v12.18h-6.86V4.04h13.56c7.79 0 11.15 5.52 11.15 11.1 0 4.43-2.11 8.44-6.87 9.99l-.06.02s.23.26.4.57Zm-.38-10.43c0-2.71-1.72-5.18-4.93-5.18h-6.01v10.21h5.47c3.85 0 5.47-2.32 5.47-5.03Zm166.73 22.74h-7.43l-7.14-12.18h-3.97v12.18h-6.86V4.04h13.56c7.79 0 11.15 5.52 11.15 11.1 0 4.43-2.11 8.44-6.87 9.99l-.06.02s.23.26.4.57l7.21 12.31Zm-7.59-22.74c0-2.71-1.72-5.18-4.93-5.18h-6.01v10.21h5.47c3.85 0 5.47-2.32 5.47-5.03ZM77.39 25.83h9.62c-.07.27-.07.39-.19.84-.89 3.55-4.39 5.68-8.84 5.68-5.92 0-10.52-5.24-10.52-11.31S72.05 9.93 77.98 9.93c3.07 0 6.01 1.42 7.86 3.69l5.47-3.74c-3.03-3.94-7.91-6.33-13.33-6.33-9.77 0-17.38 7.8-17.38 17.48s7.6 17.42 17.38 17.42 16.54-5.62 16.54-18.21H77.39v5.58ZM9.17 4.51h31.07v31.35h4.79V0H9.17v4.51ZM0 42.52h32.67V11.03H0v31.49Z"/> </svg>