<svg xmlns="http://www.w3.org/2000/svg" width="158.943" height="154.321" viewBox="0 0 158.943 154.321">
  <g id="Logo" transform="translate(-1626.224)">
    <rect id="Rechteck_9" data-name="Rechteck 9" width="158.943" height="23.991" transform="translate(1626.224 65.236)" fill="#fff"/>
    <rect id="Rechteck_10" data-name="Rechteck 10" width="158.943" height="65.239" transform="translate(1626.224)" fill="#00478a"/>
    <rect id="Rechteck_11" data-name="Rechteck 11" width="158.943" height="65.089" transform="translate(1626.224 89.232)" fill="#00478a"/>
    <path id="Pfad_1" data-name="Pfad 1" d="M1711.144,70.421c2.841-1.047,8.531-1.591,12.63-1.591a51.409,51.409,0,0,1,9.668.817L1732.19,75.2a62.768,62.768,0,0,0-6.883-.5,39.95,39.95,0,0,0-5.287.363v21.3h-8.876Z" transform="translate(-74.357 -39.68)" fill="#fff"/>
    <path id="Pfad_2" data-name="Pfad 2" d="M1721.732,82.755c0-7.92,2.673-13.927,16.953-13.927s16.955,6.008,16.955,13.927-2.676,13.97-16.955,13.97-16.953-6.053-16.953-13.97m24.861,0c0-5.143-.966-8.01-7.908-8.01s-7.909,2.868-7.909,8.01.966,8.1,7.909,8.1,7.908-2.958,7.908-8.1" transform="translate(-56.674 -39.684)" fill="#fff"/>
    <path id="Pfad_3" data-name="Pfad 3" d="M1737.944,82.755c0-7.92,2.672-13.927,16.952-13.927s16.955,6.008,16.955,13.927-2.675,13.97-16.955,13.97-16.952-6.053-16.952-13.97m24.861,0c0-5.143-.969-8.01-7.909-8.01s-7.908,2.868-7.908,8.01.967,8.1,7.908,8.1,7.909-2.958,7.909-8.1" transform="translate(-29.598 -39.684)" fill="#fff"/>
    <path id="Pfad_4" data-name="Pfad 4" d="M1758.909,78.1h-5.178v-5.46h5.178V66.766h8.875v5.872h9.783V78.1h-9.783V90.477c0,3.231.512,4.1,5.345,4.1,1.082,0,2.451-.091,4.04-.182l.056,5.279a52.161,52.161,0,0,1-7.906.5c-6.828,0-10.41-1.821-10.41-7.009Z" transform="translate(-3.232 -43.128)" fill="#fff"/>
    <path id="Pfad_5" data-name="Pfad 5" d="M1711.647,94.62a14.743,14.743,0,0,0,3.949.585c2.684,0,3.583-.331,3.583-2.184,0-1.773-.95-1.952-3.338-1.952-3.634,0-4.731-1.287-4.731-3.335,0-2.438,2.534-3.1,5.071-3.1a22.974,22.974,0,0,1,3.9.374l-.168,1.287a21.56,21.56,0,0,0-3.313-.371c-2.513,0-3.658.195-3.658,1.776,0,1.794.756,1.989,3.07,1.989,3.146,0,5.046.777,5.046,3.394,0,2.283-1.682,3.511-5.607,3.511a11.839,11.839,0,0,1-3.877-.566Z" transform="translate(-74.414 -13.291)" fill="#00478a"/>
    <path id="Pfad_6" data-name="Pfad 6" d="M1727.617,96.22a14.091,14.091,0,0,1-3.365.368c-3.679,0-7.481-.077-7.481-5.85,0-3.96,1.7-6.107,6.12-6.107,3.239,0,5.749,1.113,5.749,4.82a12.352,12.352,0,0,1-.117,1.541h-9.8c.1,3.434,1.317,4.152,5.728,4.152a18.638,18.638,0,0,0,3.145-.31Zm-.948-6.5c.021-.216.045-.449.045-.665,0-1.909-1.116-3.14-3.754-3.14-3.143,0-3.994,1.426-4.189,3.8Z" transform="translate(-64.959 -13.289)" fill="#00478a"/>
    <path id="Pfad_7" data-name="Pfad 7" d="M1723.381,85.316a13.574,13.574,0,0,1,4.561-.684,10.849,10.849,0,0,1,2.948.352l-.437,1.207a13.218,13.218,0,0,0-2.633-.291,10.255,10.255,0,0,0-2.633.35V96.434h-1.805Z" transform="translate(-53.92 -13.289)" fill="#00478a"/>
    <path id="Pfad_8" data-name="Pfad 8" d="M1727.517,84.691h1.928l4.264,10.221,4.267-10.221h1.853l-5.095,11.644h-2.123Z" transform="translate(-47.012 -13.191)" fill="#00478a"/>
    <path id="Pfad_9" data-name="Pfad 9" d="M1734.072,84.207c0-.665.32-.919,1.1-.919s1.071.254,1.071.919-.291.9-1.071.9-1.1-.235-1.1-.9m.173,2.828h1.805V98.678h-1.805Z" transform="translate(-36.065 -15.534)" fill="#00478a"/>
    <path id="Pfad_10" data-name="Pfad 10" d="M1747.134,96.335a22.19,22.19,0,0,1-3.316.254c-4.486,0-6.7-1.346-6.7-5.909,0-3.941,1.319-6.048,7-6.048a15.865,15.865,0,0,1,3.143.294l-.219,1.287a17,17,0,0,0-2.39-.195c-4.069,0-5.58.427-5.58,4.662,0,3.666,1.218,4.545,5.217,4.545a22.1,22.1,0,0,0,2.8-.136Z" transform="translate(-30.986 -13.289)" fill="#00478a"/>
    <path id="Pfad_11" data-name="Pfad 11" d="M1753.422,96.22a14.128,14.128,0,0,1-3.364.368c-3.679,0-7.484-.077-7.484-5.85,0-3.96,1.706-6.107,6.12-6.107,3.241,0,5.751,1.113,5.751,4.82a11.9,11.9,0,0,1-.12,1.541h-9.8c.1,3.434,1.316,4.152,5.727,4.152a18.67,18.67,0,0,0,3.146-.31Zm-.95-6.5a6.275,6.275,0,0,0,.048-.665c0-1.909-1.121-3.14-3.754-3.14-3.143,0-4,1.426-4.192,3.8Z" transform="translate(-21.867 -13.289)" fill="#00478a"/>
    <path id="Pfad_12" data-name="Pfad 12" d="M1752.926,85.234a19.037,19.037,0,0,1,4.948-.6c3.487,0,4.971,1.266,4.971,3.725v7.586a17.844,17.844,0,0,1-4.948.646c-4.461,0-6.094-.977-6.094-3.687,0-2.5,2.145-3.61,6.019-3.61a31.956,31.956,0,0,1,3.2.195v-.721c0-1.736-.537-2.769-3.658-2.769a14.9,14.9,0,0,0-3.877.566Zm8.093,5.5c-1.025-.1-2-.117-2.95-.117-3,0-4.315.507-4.315,2.283,0,1.581.756,2.36,4.24,2.36a18.287,18.287,0,0,0,3.025-.235Z" transform="translate(-6.45 -13.288)" fill="#00478a"/>
    <path id="Pfad_13" data-name="Pfad 13" d="M1761.324,99.125a20.3,20.3,0,0,0,3.316.235c2.975,0,3.437-.94,3.437-2.753V96a10.481,10.481,0,0,1-3.388.585c-3.73,0-6.483-1.113-6.483-5.853,0-3.784,1.365-6.1,7-6.1a19.515,19.515,0,0,1,4.681.6V96.394c0,2.264-.756,4.232-5.29,4.232a28.178,28.178,0,0,1-3.634-.254Zm6.753-12.894a15.924,15.924,0,0,0-2.486-.254c-4,0-5.436.993-5.436,4.8,0,3.493,1.268,4.467,4.755,4.467a7.97,7.97,0,0,0,3.167-.606Z" transform="translate(4.24 -13.289)" fill="#00478a"/>
    <rect id="Rechteck_11-2" data-name="Rechteck 11" width="158.943" height="154.321" transform="translate(1626.224 0)" fill="none"/>
  </g>
</svg>
