<svg xmlns="http://www.w3.org/2000/svg" width="188" height="182.755" viewBox="0 0 188 182.755">
  <g id="Logo-Neg" transform="translate(-1827.724 0.5)">
    <path id="Differenzmenge_2" data-name="Differenzmenge 2" d="M2205.224-5120.542h-187v-76.777h187v76.777Zm-19.218-79a32.99,32.99,0,0,1-4.276-.3l.431-1.468a23.648,23.648,0,0,0,3.9.277c3.439,0,4.044-1.044,4.044-3.239v-.709a12.281,12.281,0,0,1-3.987.688c-2.5,0-4.237-.43-5.46-1.352-1.459-1.1-2.168-2.911-2.168-5.534,0-2.468.519-4.139,1.632-5.26,1.282-1.293,3.441-1.921,6.6-1.921a22.862,22.862,0,0,1,5.506.71l0,13.128a4.661,4.661,0,0,1-1.111,3.488C2190.14-5200.031,2188.468-5199.543,2186.006-5199.543Zm1.175-17.234c-2.526,0-4.009.342-4.961,1.143-.992.835-1.435,2.224-1.435,4.5,0,2.1.388,3.382,1.259,4.169.832.752,2.169,1.087,4.335,1.087a9.315,9.315,0,0,0,3.726-.713v-9.89A18.8,18.8,0,0,0,2187.18-5216.777Zm-21.629,12.487c-2.688,0-4.453-.31-5.553-.974a3.539,3.539,0,0,1-1.615-3.364,3.5,3.5,0,0,1,1.831-3.226,10.745,10.745,0,0,1,5.25-1.022,37.673,37.673,0,0,1,3.761.229v-.848c0-2.113-.686-3.258-4.3-3.258a17.448,17.448,0,0,0-4.56.666l-.657-1.563a22.553,22.553,0,0,1,5.82-.708c3.991,0,5.85,1.393,5.85,4.383v8.924A20.948,20.948,0,0,1,2165.551-5204.29Zm.2-7.025c-3.748,0-5.077.7-5.077,2.687,0,1.8.8,2.777,4.989,2.777a21.7,21.7,0,0,0,3.56-.277v-5.049C2167.917-5211.3,2166.682-5211.315,2165.752-5211.315Zm-27.563,7.022c-4.127,0-8.805,0-8.805-6.884,0-2.42.541-4.167,1.653-5.34,1.176-1.241,2.99-1.844,5.548-1.844a8.216,8.216,0,0,1,4.813,1.2,5.145,5.145,0,0,1,1.954,4.47,13.865,13.865,0,0,1-.143,1.813h-11.528c.059,2.122.483,3.269,1.465,3.959.952.667,2.431.927,5.272.927a21.684,21.684,0,0,0,3.7-.366l.029,1.631A16.742,16.742,0,0,1,2138.189-5204.293Zm-1.521-12.554c-3.788,0-4.711,1.79-4.932,4.477h9.291a7.066,7.066,0,0,0,.057-.783C2141.085-5215.569,2139.558-5216.847,2136.668-5216.847Zm-16.549,12.554c-2.815,0-4.7-.465-5.923-1.464-1.341-1.088-1.966-2.832-1.966-5.489,0-2.57.5-4.2,1.612-5.3,1.265-1.241,3.369-1.819,6.623-1.819a18.693,18.693,0,0,1,3.7.346l-.258,1.515a19.515,19.515,0,0,0-2.81-.23c-4.765,0-6.566.473-6.566,5.485,0,2.238.39,3.521,1.305,4.292.889.75,2.29,1.055,4.833,1.055a26.384,26.384,0,0,0,3.3-.16l.059,1.466A25.828,25.828,0,0,1,2120.12-5204.293Zm-62.989,0c-4.126,0-8.8,0-8.8-6.884,0-2.421.54-4.167,1.651-5.34,1.176-1.241,2.99-1.844,5.549-1.844a8.1,8.1,0,0,1,4.81,1.2,5.148,5.148,0,0,1,1.952,4.47,14.434,14.434,0,0,1-.137,1.813h-11.532c.059,2.122.483,3.269,1.465,3.959.954.667,2.432.927,5.272.927a21.684,21.684,0,0,0,3.7-.366l.029,1.631A16.708,16.708,0,0,1,2057.131-5204.293Zm-1.521-12.554c-3.786,0-4.708,1.79-4.927,4.477h9.29l0-.016v-.02c.024-.248.05-.5.05-.747C2060.027-5215.569,2058.5-5216.847,2055.61-5216.847Zm-19.961,12.554a13.855,13.855,0,0,1-4.562-.667l.089-1.653a17.17,17.17,0,0,0,4.646.688c3.163,0,4.216-.372,4.216-2.569,0-2.089-1.136-2.3-3.927-2.3-3.85,0-5.566-1.21-5.566-3.923a3.058,3.058,0,0,1,1.863-2.9,9.385,9.385,0,0,1,4.1-.749,27.107,27.107,0,0,1,4.587.439l-.2,1.514a25.543,25.543,0,0,0-3.9-.437c-2.926,0-4.3.206-4.3,2.089,0,2.148.937,2.339,3.613,2.339,4.162,0,5.938,1.194,5.938,3.993C2042.247-5205.645,2040.089-5204.293,2035.65-5204.293Zm35.568-.182h-2.124v-13.082a15.964,15.964,0,0,1,5.365-.8,12.818,12.818,0,0,1,3.468.415l-.514,1.42a15.461,15.461,0,0,0-3.1-.343,12.106,12.106,0,0,0-3.1.412v11.981Zm33.788,0h-2.124v-13.7h2.124v13.7Zm-14.429,0h-2.5l-5.995-13.7h2.269l5.017,12.026,5.019-12.026h2.181l-5.995,13.7Zm13.4-15.97c-.932,0-1.295-.3-1.295-1.057,0-.778.363-1.081,1.295-1.081s1.259.293,1.259,1.081C2105.232-5220.732,2104.891-5220.446,2103.973-5220.446Zm101.25-5.1h-187V-5302.3h187v76.754Zm-34.7-35.611v17.721c0,2.992,1.018,5.09,3.113,6.413,1.957,1.234,4.945,1.833,9.135,1.833a62.092,62.092,0,0,0,9.3-.587l-.067-6.21-.228.013-.122.007-.459.027-.031,0h-.026c-1.508.087-2.811.163-3.888.163-2.961,0-4.44-.276-5.276-.985-.851-.72-1.013-1.9-1.013-3.834v-14.564h11.511v-6.424h-11.511v-6.908h-10.442v6.908h-6.092v6.424Zm-35.741-6.854c-7.837,0-13.159,1.537-16.272,4.7-2.54,2.58-3.673,6.185-3.673,11.688s1.133,9.12,3.673,11.71c3.116,3.179,8.439,4.725,16.272,4.725s13.157-1.546,16.275-4.725c2.541-2.592,3.674-6.2,3.674-11.71s-1.133-9.107-3.674-11.687C2147.946-5266.471,2142.623-5268.008,2134.785-5268.008Zm-50.927,0c-7.838,0-13.161,1.537-16.273,4.7-2.54,2.58-3.673,6.185-3.673,11.688s1.133,9.12,3.673,11.71c3.117,3.179,8.44,4.725,16.273,4.725s13.156-1.546,16.273-4.725c2.541-2.591,3.674-6.2,3.674-11.71s-1.133-9.108-3.674-11.687C2097.019-5266.471,2091.7-5268.008,2083.858-5268.008Zm-38.348.008c-4.861,0-11.526.643-14.859,1.871v30.52h10.441v-25.06a46.645,46.645,0,0,1,6.221-.427,73.359,73.359,0,0,1,8.1.587l1.474-6.531A60,60,0,0,0,2045.51-5268Zm89.275,25.906c-3.9,0-6.348-.793-7.714-2.5-1.4-1.741-1.59-4.409-1.59-7.032,0-3.021.271-5.364,1.59-6.98,1.358-1.667,3.81-2.443,7.714-2.443s6.354.776,7.714,2.443c1.321,1.616,1.592,3.959,1.592,6.98,0,2.623-.193,5.291-1.592,7.032C2141.133-5242.887,2138.682-5242.094,2134.785-5242.094Zm-50.927,0c-3.9,0-6.349-.793-7.715-2.5-1.4-1.741-1.59-4.408-1.59-7.032,0-3.022.271-5.365,1.59-6.98,1.36-1.667,3.812-2.443,7.715-2.443s6.354.776,7.714,2.443c1.32,1.617,1.59,3.959,1.59,6.98,0,2.623-.193,5.291-1.59,7.032C2090.206-5242.887,2087.754-5242.094,2083.858-5242.094Z" transform="translate(-190 5302.297)" fill="#fff" stroke="rgba(0,0,0,0)" stroke-miterlimit="10" stroke-width="1"/>
  </g>
</svg>
